{"title":"Dinner For Schmucks 2010 PPVRip XviD Feel-Free","uid":5993111,"size":794181603,"categoryP":"video","categoryS":"movies","magnet":"?xt=urn:btih:740c48b4162576fa06eaef1b01eee9d7605b0b70&amp;dn=Dinner+For+Schmucks+2010+PPVRip+XviD+Feel-Free&amp;tr=udp%3A%2F%2Ftracker.openbittorrent.com%3A80&amp;tr=udp%3A%2F%2Fopen.demonii.com%3A1337&amp;tr=udp%3A%2F%2Ftracker.coppersurfer.tk%3A6969&amp;tr=udp%3A%2F%2Fexodus.desync.com%3A6969","seeders":0,"leechers":0,"uploader":"neon","files":9,"time":1290959105,"description":"Genre:Comedy\nLanguage:English\nIMDb:http://www.imdb.com/title/tt0427152/\nSource:IFLIX.Thanks\nSample:Yes\n\nGeneral\nComplete name :Dinner For Schmucks 2010 PPVRip XviD Feel-Free\nFormat : AVI\nFormat/Info : Audio Video Interleave\nFile size : 753 MiB\nDuration : 1h 53mn\nOverall bit rate : 928 Kbps\nVideo #0\nCodec ID : XVID\nCodec ID/Hint : XviD\nDuration : 1h 53mn\nBit rate : 788 Kbps\nWidth : 720 pixels\nHeight : 384 pixels\nDisplay aspect ratio : 1.875\nFrame rate : 29.970 fps\nResolution : 24 bits\nColorimetry : 4:2:0\nScan type : Progressive\nBits/(Pixel*Frame) : 0.095\nStream size : 640 MiB (85%)\nWriting library : XviD 1.2.1 (UTC 2008-12-04)\nAudio #1\nID : 1\nFormat : MPEG Audio\nFormat version : Version 1\nFormat profile : Layer 3\nCodec ID : 55\nCodec ID/Hint : MP3\nDuration : 1h 53mn\nBit rate mode : Constant\nBit rate : 128 Kbps\nChannel(s) : 2 channels\nSampling rate : 48.0 KHz\nResolution : 16 bits\nStream size : 104 MiB (14%)\nAlignment : Split accross interleaves\nInterleave, duration : 33 ms (1.00 video frame)\nInterleave, preload duration : 500 ms\nPlot:\nTim (Rudd) is a rising executive who &quot;succeeds&quot; in finding the perfect guest, IRS employee Barry (Carell)\n\n","torrent":{"xt":"urn:btih:740c48b4162576fa06eaef1b01eee9d7605b0b70","amp;dn":"Dinner+For+Schmucks+2010+PPVRip+XviD+Feel-Free","amp;tr":["udp%3A%2F%2Ftracker.openbittorrent.com%3A80","udp%3A%2F%2Fopen.demonii.com%3A1337","udp%3A%2F%2Ftracker.coppersurfer.tk%3A6969","udp%3A%2F%2Fexodus.desync.com%3A6969"],"infoHash":"740c48b4162576fa06eaef1b01eee9d7605b0b70","infoHashBuffer":{"type":"Buffer","data":[116,12,72,180,22,37,118,250,6,234,239,27,1,238,233,215,96,91,11,112]},"announce":[],"urlList":[]}}